<?xml version="1.0" encoding="UTF-8"?>
<svg xmlns="http://www.w3.org/2000/svg" xmlns:xlink="http://www.w3.org/1999/xlink" width="375pt" height="374.999991pt" viewBox="0 0 375 374.999991" version="1.2">
<g id="surface1">
<rect x="0" y="0" width="375" height="374.999991" style="fill:rgb(100%,100%,100%);fill-opacity:1;stroke:none;"/>
<rect x="0" y="0" width="375" height="374.999991" style="fill:rgb(100%,100%,100%);fill-opacity:1;stroke:none;"/>
<rect x="0" y="0" width="375" height="374.999991" style="fill:rgb(100%,100%,100%);fill-opacity:1;stroke:none;"/>
<path style=" stroke:none;fill-rule:nonzero;fill:rgb(2.749634%,20.779419%,46.669006%);fill-opacity:1;" d="M 243.820312 213.8125 C 218.46875 179.164062 143.261719 161.421875 122.980469 149.59375 C 102.703125 137.761719 104.394531 107.339844 104.394531 107.339844 C 104.394531 107.339844 204.949219 160.574219 215.089844 168.179688 C 225.230469 175.785156 232.839844 190.152344 243.820312 213.8125 "/>
<path style=" stroke:none;fill-rule:nonzero;fill:rgb(2.749634%,20.779419%,46.669006%);fill-opacity:1;" d="M 257.472656 243.503906 C 234.132812 216.960938 169.671875 207.007812 151.886719 198.625 C 134.109375 190.234375 133.832031 165.527344 133.832031 165.527344 C 133.832031 165.527344 221.679688 202.710938 230.667969 208.273438 C 239.648438 213.828125 246.875 225.007812 257.472656 243.503906 "/>
<path style=" stroke:none;fill-rule:nonzero;fill:rgb(2.749634%,20.779419%,46.669006%);fill-opacity:1;" d="M 270.992188 268.011719 C 249.898438 248.476562 190.867188 241.8125 174.648438 235.761719 C 158.4375 229.71875 158.472656 211.28125 158.472656 211.28125 C 158.472656 211.28125 238.640625 237.988281 246.816406 242.03125 C 254.996094 246.074219 261.488281 254.324219 270.992188 268.011719 "/>
</g>
</svg>
